PathFileType	3	(X/Y/Z)	F:\ViconData\AntennenMessung\Messung1\Session1\ID03.trc
DataRate	CameraRate	NumFrames	NumMarkers	Units	OrigDataRate	OrigDataStartFrame	OrigNumFrames
120.0	120.0	4	70	mm	120.0	1016	1160	
Frame#	Time	Ashort			Along			Atop			A4			Bshort			Blong			Btop			B4			Cshort			Clong			Ctop			C4			Dshort			Dlong			Dtop			D4			Eshort			Elong			Etop			E4			Fshort			Flong			Ftop			F4			Gshort			Glong			Gtop			G4			Hshort			Hlong			Htop			H4			I1			I2			I3			I4			I5			WandAshort			WandAlong			WandAtop			WandA4			WandA15			WandBshort			WandB4			WandB5			WandBtop			WandBlong			WandCshort			WandClong			WandCtop			WandC4			WandC5			Acenter			Aantenna			Bcenter			Bantenna			Ccenter			Cantenna			Dcenter			Dantenna			Ecenter			Eantenna			Fcenter			Fantenna			Gcenter			Gantenna			Hcenter			Hantenna			Icenter			Iantenna			
		X1	Y1	Z1	X2	Y2	Z2	X3	Y3	Z3	X4	Y4	Z4	X5	Y5	Z5	X6	Y6	Z6	X7	Y7	Z7	X8	Y8	Z8	X9	Y9	Z9	X10	Y10	Z10	X11	Y11	Z11	X12	Y12	Z12	X13	Y13	Z13	X14	Y14	Z14	X15	Y15	Z15	X16	Y16	Z16	X17	Y17	Z17	X18	Y18	Z18	X19	Y19	Z19	X20	Y20	Z20	X21	Y21	Z21	X22	Y22	Z22	X23	Y23	Z23	X24	Y24	Z24	X25	Y25	Z25	X26	Y26	Z26	X27	Y27	Z27	X28	Y28	Z28	X29	Y29	Z29	X30	Y30	Z30	X31	Y31	Z31	X32	Y32	Z32	X33	Y33	Z33	X34	Y34	Z34	X35	Y35	Z35	X36	Y36	Z36	X37	Y37	Z37	X38	Y38	Z38	X39	Y39	Z39	X40	Y40	Z40	X41	Y41	Z41	X42	Y42	Z42	X43	Y43	Z43	X44	Y44	Z44	X45	Y45	Z45	X46	Y46	Z46	X47	Y47	Z47	X48	Y48	Z48	X49	Y49	Z49	X50	Y50	Z50	X51	Y51	Z51	X52	Y52	Z52	X53	Y53	Z53	X54	Y54	Z54	X55	Y55	Z55	X56	Y56	Z56	X57	Y57	Z57	X58	Y58	Z58	X59	Y59	Z59	X60	Y60	Z60	X61	Y61	Z61	X62	Y62	Z62	X63	Y63	Z63	X64	Y64	Z64	X65	Y65	Z65	X66	Y66	Z66	X67	Y67	Z67	X68	Y68	Z68	X69	Y69	Z69	X70	Y70	Z70	
1016	8.4583333	-1038.2874	214.46898	-1644.2157	-1109.3409	203.44511	-1599.5326	-1063.6039	172.65781	-1625.5869	-1054.2379	262.13812	-1634.9889	-1353.0988	235.0009	1003.9188	-1281.3135	227.14143	1052.2786	-1323.1735	194.23433	1020.8441	-1284.7329	287.8418	1052.7776	813.84552	187.67755	1209.4734	892.66492	179.17613	1178.6361	844.47534	145.28421	1198.1993	860.44812	292.56583	1167.2965	1115.7985	209.74695	-1401.7207	1056.2594	194.12442	-1460.2358	1095.025	162.18686	-1423.8824	1069.8912	238.64909	-1425.9465	-1204.484	1685.9545	-1563.3341	-1129.1318	1688.2303	-1606.1091	-1173.1394	1724.2985	-1581.8936	-1133.5212	1581.0486	-1603.5184	-1239.7365	1699.2505	1119.2799	-1309.4749	1698.8942	1071.811	-1270.3912	1736.1927	1096.6687	-1244.5364	1594.6204	1106.7026	988.79803	1664.2051	1162.2595	955.74329	1702.3225	1181.0947	922.04565	1662.0635	1214.7316	939.77557	1659.3289	1159.8389	999.20422	1668.5449	-1579.4971	1058.8547	1670.1624	-1518.6593	1025.0681	1708.0306	-1551.1649	1059.2855	1672.2002	-1585.6328	-552.38202	1664.1954	-294.65802	-557.47455	1665.3367	-210.1599	-555.17499	1701.4482	-257.33276	-586.60675	1662.5422	-259.86566	-506.74481	1666.9379	-254.76109																																														-1068.944	209.71263	-1624.9365	-1074.5061	248.30801	-1624.2595	-1321.8596	231.58067	1024.9636	-1320.4969	270.32187	1029.2369	847.85687	184.00909	1196.1666	851.24493	222.80823	1194.13	1088.7517	202.65009	-1428.3022	1082.811	240.96707	-1432.4875	-1171.957	1686.9369	-1581.7985	-1170.7233	1647.9565	-1581.6993	-1271.0735	1699.0902	1097.9496	-1271.79	1660.12	1099.295	953.31738	1705.1199	1182.4771	972.91681	1732.1051	1162.2617	1026.5596	1669.2865	-1551.5972	1028.0597	1630.3177	-1552.032	-554.66327	1664.7065	-256.80569	-554.12018	1625.7144	-256.24634
1017	8.4666667	-1038.3456	214.60431	-1644.1646	-1109.3446	203.41913	-1599.5139	-1063.619	172.62103	-1625.6011	-1054.1929	262.13281	-1634.9884	-1353.1072	235.18199	1003.9705	-1281.3273	227.10165	1052.3289	-1323.235	194.1563	1020.9122	-1284.6458	287.88062	1052.7728	813.82391	187.63026	1209.5281	892.23907	178.52931	1179.131	844.24005	145.5013	1198.1661	860.42322	292.56686	1167.1705	1115.7974	209.759	-1401.7306	1056.24	194.08929	-1460.205	1094.9757	162.15431	-1423.8864	1069.8878	238.67392	-1425.9584	-1204.4716	1685.9355	-1563.3412	-1129.1296	1688.3431	-1606.6133	-1173.1364	1724.3152	-1581.8936	-1133.5519	1581.0741	-1603.5347	-1239.7303	1699.249	1119.2799	-1309.4771	1698.9143	1071.8201	-1270.3901	1736.1959	1096.6757	-1244.5812	1594.4413	1106.3334	988.83588	1664.2329	1162.2185	955.77997	1702.3557	1181.125	922.23865	1662.1376	1214.7322	939.78455	1659.2974	1159.8947	999.19617	1668.5818	-1579.5187	1058.7211	1669.9788	-1518.6736	1025.0551	1708.0256	-1551.1595	1059.283	1672.2192	-1585.6384	-552.39343	1664.2032	-294.6525	-557.51196	1665.3651	-210.15697	-555.18469	1701.4648	-257.3287	-586.58606	1662.5311	-259.87415	-507.14743	1666.6361	-254.79883																																														-1069.016	209.77248	-1624.8761	-1074.6216	248.36018	-1624.1232	-1321.8063	231.65842	1025.0579	-1320.3306	270.3945	1029.3401	847.94684	183.66991	1196.3007	851.71216	222.44145	1194.4056	1088.6973	202.62889	-1428.3376	1082.7542	240.94237	-1432.5515	-1171.9993	1686.9731	-1581.9913	-1170.8121	1647.9913	-1582.0935	-1271.0785	1699.0985	1097.9487	-1271.8015	1660.1282	1099.2861	953.37878	1705.1249	1182.4983	972.93481	1732.121	1162.2555	1026.4635	1669.2217	-1551.6465	1027.8779	1630.2504	-1552.1356	-554.68683	1664.7238	-256.79337	-554.15851	1625.7314	-256.22525
1018	8.475	-1038.2819	214.47871	-1644.2419	-1109.2916	203.43378	-1599.5312	-1063.6299	172.66217	-1625.5789	-1054.2064	262.12656	-1634.9879	-1353.0941	235.00114	1003.8967	-1281.374	227.12175	1052.2677	-1323.174	194.15541	1020.8409	-1284.7234	287.84842	1052.7804	813.81036	187.64511	1209.4222	892.36755	178.36853	1179.1672	844.55499	145.20175	1198.2091	860.49963	292.52548	1167.4115	1115.7328	209.45322	-1401.5876	1056.2623	194.12399	-1460.2351	1094.9846	162.09668	-1423.8881	1069.8406	238.58511	-1425.9655	-1204.48	1685.9368	-1563.3324	-1129.1567	1688.3534	-1606.5994	-1173.1121	1724.3789	-1581.9663	-1133.542	1581.0656	-1603.5305	-1239.756	1699.2881	1119.2905	-1309.5045	1698.9662	1071.837	-1270.3691	1736.1702	1096.6565	-1244.5791	1594.4253	1106.7382	988.8526	1664.2697	1162.2406	955.70483	1702.1877	1181.0426	922.14288	1662.1277	1214.7322	939.73523	1659.2736	1159.8938	999.20917	1668.5728	-1579.5161	1058.8557	1670.1635	-1518.6541	1025.061	1708.024	-1551.1534	1059.2734	1672.2084	-1585.6493	-552.38086	1664.2024	-294.66531	-557.52112	1665.3785	-210.12755	-555.17004	1701.4497	-257.33652	-586.60559	1662.5405	-259.87424	-506.80667	1666.8938	-254.76015																																														-1068.9744	209.70476	-1624.9165	-1074.5428	248.299	-1624.2266	-1321.8484	231.56839	1024.97	-1320.476	270.30902	1029.2455	848.29041	183.57344	1196.1427	852.06372	222.33432	1194.0555	1088.7843	202.50691	-1428.1632	1082.9017	240.84676	-1432.2191	-1171.9438	1686.9806	-1582.0216	-1170.7264	1647.9996	-1582.0793	-1271.0924	1699.1434	1097.9707	-1271.8535	1660.1753	1099.3539	953.10193	1705.1652	1182.5188	972.56519	1732.2216	1162.2672	1026.5587	1669.3021	-1551.6091	1028.066	1630.334	-1552.068	-554.68347	1664.7292	-256.79599	-554.16675	1625.7368	-256.22205
1019	8.4833333	-1038.3042	214.62625	-1644.1987	-1109.3098	203.4715	-1599.5591	-1063.589	172.64487	-1625.5806	-1054.0203	262.03748	-1635.0013	-1353.0837	235.17685	1003.9598	-1281.3424	227.14571	1052.3267	-1323.1447	194.18384	1020.8086	-1284.7231	287.9343	1052.7675	813.81055	187.67172	1209.5222	892.36786	178.50209	1179.1763	844.46246	145.30493	1198.1814	860.508	292.62506	1167.3152	1115.7955	209.74786	-1401.7167	1056.2587	194.06908	-1460.1935	1094.952	162.06009	-1423.8519	1069.8723	238.61478	-1425.9459	-1204.4783	1685.9486	-1563.3357	-1129.1287	1688.2253	-1606.0837	-1173.124	1724.3802	-1581.9612	-1133.5426	1581.0962	-1603.5619	-1239.751	1699.2915	1119.2866	-1309.4779	1698.8978	1071.8171	-1270.3878	1736.1962	1096.6685	-1244.5328	1594.7146	1106.6935	988.79205	1664.2408	1162.254	955.68695	1702.4692	1181.1274	922.14185	1662.2544	1214.7616	939.79767	1659.2817	1159.8708	999.21069	1668.577	-1579.5193	1058.7216	1669.995	-1518.6785	1025.0558	1708.0343	-1551.1602	1059.2678	1672.2059	-1585.6549	-552.38623	1664.1998	-294.6539	-557.49475	1665.325	-210.15965	-555.18213	1701.4385	-257.33017	-586.58893	1662.5295	-259.87561	-506.85352	1666.8634	-254.76309																																														-1068.9994	209.80411	-1624.9011	-1074.6179	248.39082	-1624.1959	-1321.8053	231.67535	1025.0472	-1320.4218	270.40408	1029.4257	848.19	183.65875	1196.2417	851.95789	222.42677	1194.2811	1088.6857	202.60857	-1428.3439	1082.7646	240.92212	-1432.5883	-1171.9086	1686.9327	-1581.8132	-1170.6434	1647.9535	-1581.6594	-1271.0638	1699.1145	1097.9691	-1271.7744	1660.145	1099.3361	953.32397	1705.1976	1182.4744	972.90063	1732.1582	1162.204	1026.4758	1669.2267	-1551.6447	1027.9019	1630.2557	-1552.1315	-554.67419	1664.7036	-256.8103	-554.13507	1625.7112	-256.25848
